<svg width="32" height="32" viewBox="0 0 32 32" xmlns="http://www.w3.org/2000/svg">
<path d="M5.85377 28.4341C5.21491 27.7949 4.57606 27.1557 3.93721 26.5164C0.712329 22.6552 -0.531488 18.2601 0.205785 13.3311C0.747453 10.3733 1.98647 7.7417 3.92279 5.43637C4.35498 5.00393 4.78717 4.5715 5.21936 4.13906C8.85204 0.988668 13.0472 -0.363337 17.8048 0.083124C19.313 0.266303 20.7703 0.663958 22.1768 1.27612C22.0965 1.4337 21.9679 1.5315 21.7909 1.56949C18.5706 2.60185 15.4411 3.85665 12.4024 5.33398C10.0797 6.4599 7.92855 7.84933 5.94897 9.5023C4.61559 10.6265 3.57651 11.9755 2.8317 13.5493C1.91965 16.1022 2.3434 18.431 4.10303 20.5356C5.36182 22.0139 6.82485 23.2513 8.49214 24.2477C10.2233 25.3258 12.026 26.2646 13.9 27.0641C16.7994 28.287 19.7554 29.3502 22.7681 30.2539C22.8167 30.2835 22.8683 30.3041 22.9226 30.3158C22.7284 30.5059 22.502 30.65 22.2432 30.748C17.4621 32.6303 12.787 32.3902 8.21805 30.0275C7.38803 29.5474 6.59997 29.0163 5.85377 28.4341Z" />
<path d="M27.3689 4.74148C27.6265 4.99923 27.8841 5.25702 28.1417 5.51474C29.0546 6.65022 29.8226 7.88195 30.4457 9.20998C30.5183 9.30956 30.508 9.39196 30.4149 9.45722C28.4053 9.67977 26.3975 9.91536 24.3916 10.164C20.9155 10.634 17.4664 11.2601 14.0443 12.0424C13.1486 12.2994 12.2529 12.5563 11.3572 12.8133C10.5953 13.0859 9.8438 13.3841 9.10278 13.7081C8.47811 14.0146 7.91199 14.4057 7.40455 14.8815C6.89176 15.4513 6.79954 16.0797 7.1278 16.7668C7.39161 17.0834 7.69044 17.3618 8.02423 17.6019C8.62914 17.986 9.25755 18.3264 9.90931 18.6232C11.9218 19.3646 13.9713 19.9533 16.0579 20.3892C20.7607 21.329 25.4979 22.0328 30.2694 22.5008C30.3865 22.5597 30.4484 22.6525 30.4549 22.7791C30.1079 23.6402 29.6554 24.4435 29.0974 25.1891C28.7517 25.6529 28.3968 26.1009 28.0325 26.5329C27.7547 26.8109 27.4768 27.0889 27.199 27.3669C22.5633 26.5746 18.0162 25.3711 13.558 23.7566C11.7697 23.098 10.0598 22.2726 8.42832 21.2804C7.28055 20.5695 6.29145 19.6827 5.46095 18.6202C4.29621 16.9267 4.26419 15.2163 5.36476 13.4892C6.17292 12.4297 7.14026 11.5444 8.26672 10.833C10.086 9.70733 12.0006 8.78135 14.0106 8.05509C18.2976 6.54435 22.6629 5.39336 27.1062 4.60223C27.1957 4.65358 27.2833 4.70001 27.3689 4.74148Z" />
<path d="M9.36726 16.5056C9.06325 16.2065 9.05794 15.9025 9.35118 15.5938C9.55177 15.4424 9.76793 15.319 9.99965 15.2233C10.5631 15.0563 11.1293 14.9021 11.6984 14.7608C13.0048 14.5114 14.3175 14.3011 15.6366 14.1299C15.6894 14.128 15.7306 14.1487 15.7602 14.1918C15.8157 14.1356 15.8826 14.0996 15.9609 14.0837C19.1 13.7557 22.2507 13.5106 25.4132 13.3484C25.7632 13.3074 26.1133 13.2664 26.4634 13.2254C28.1542 13.1751 29.8429 13.1042 31.5295 13.0125C31.6016 13.0435 31.6531 13.095 31.684 13.1672C31.7716 13.3883 31.8336 13.6151 31.8698 13.8473C32.0769 15.5311 32.037 17.2105 31.7497 18.8854C31.7189 18.9575 31.6674 19.009 31.5953 19.0399C26.3142 18.8308 21.052 18.4562 15.8091 17.9164C14.0925 17.7193 12.3933 17.4193 10.7114 17.0165C10.2537 16.8569 9.80567 16.6866 9.36726 16.5056Z" />
</svg>
